<svg x="0" y="0" width="700" height="350" viewBox="0 0 700 350" xmlns="http://www.w3.org/2000/svg" xmlns:xlink="http://www.w3.org/1999/xlink" xmlns:fi="http://pattern.flaticon.com/"><rect x="0px" y="0px" width="100%" height="100%" opacity="1" fill="#0a0a08"/><defs><g transform="matrix(0.11718681454658508 0 0 0.11718681454658508 21.99999237060547 65)" id="L1_1"><path d="M511.894,224.153C493.837,75.538,339.868-33.946,180.825,9.693c-48.372,13.272-93.964,46.671-128.38,94.043    C19.115,149.613,0,204.677,0,254.809l0.001,71.836c0,17.602,10.354,33.683,26.379,40.967c0.15,0.068,0.302,0.134,0.455,0.198    l331.281,137.56c44.213,18.335,95.411-2.529,113.646-48.418c1.729-4.351,3.491-9.182,5.256-14.211l13.277,6.638    c2.117,1.059,4.415,1.583,6.707,1.583c2.743,0,5.479-0.751,7.887-2.24c4.423-2.733,7.114-7.561,7.114-12.76v-210    C512.003,225.674,511.919,224.364,511.894,224.153z M443.881,445.872c-11.935,30.034-45.329,43.789-74.269,31.787L38.607,340.214    c-5.235-2.467-8.606-7.771-8.606-13.569L30,254.808c0-93.571,72.704-192.572,158.764-216.185    c131.994-36.217,263.467,47.101,290.09,169.954l-186.272-23.284c-26.802-3.352-50.581,17.56-50.581,44.652v67.476    c0,17.155,9.532,32.577,24.875,40.249l183.082,91.541C447.884,435.221,445.828,440.973,443.881,445.872z M302.001,216.704v104.987    l-21.708-10.853c-5.115-2.557-8.292-7.698-8.292-13.416v-67.476c0-9.138,8.002-15.993,16.86-14.884L302.001,216.704z     M482.001,411.692l-150-75V220.454l150,18.75V411.692z" fill="#8c1616"/><path d="M120.001,210.962c-33.084,0-60,26.916-60,60c0,33.084,26.916,60,60,60c33.084,0,60-26.916,60-60    C180.001,237.878,153.085,210.962,120.001,210.962z M120.001,300.962c-16.542,0-30-13.458-30-30s13.458-30,30-30    c16.542,0,30,13.458,30,30S136.543,300.962,120.001,300.962z" fill="#8c1616"/></g><g transform="matrix(0.12931033968925476 0 0 0.12931033968925476 179 290)" id="L1_7"><path d="m352 16h-48v24h-12.640625l-26.855469 47-3.359375-5.878906c-.503906 1.933594-1.039062 3.871094-1.671875 5.773437l-10.449218 31.335938 30.976562 36.144531v-40.246094l-6.289062-11 26.929687-47.128906h3.359375v24h48c17.648438 0 32-14.351562 32-32s-14.351562-32-32-32zm0 0" fill="#8c0f1c"/><path d="m80 56h3.359375l26.929687 47.128906-6.289062 11v40.246094l30.976562-36.144531-10.449218-31.335938c-.640625-1.902343-1.167969-3.839843-1.671875-5.773437l-3.359375 5.878906-26.855469-47h-12.640625v-24h-48c-17.648438 0-32 14.351562-32 32s14.351562 32 32 32h48zm0 0" fill="#8c0f1c"/><path d="m149.769531 112h84.460938l10.058593-30.167969c2.464844-7.375 3.710938-15.070312 3.710938-22.871093 0-11.167969-2.640625-22.351563-7.640625-32.34375l-13.304687-26.617188h-70.109376l-13.3125 26.617188c-4.992187 9.992187-7.632812 21.175781-7.632812 32.34375 0 7.800781 1.246094 15.496093 3.710938 22.871093zm39.886719-93.65625 40 40-11.3125 11.3125-40-40zm-24 24 48 48-11.3125 11.3125-48-48zm0 0" fill="#8c0f1c"/><path d="m104.710938 193.679688-32.671876 26.136718c.847657 43.296875 16.105469 85.558594 43.183594 119.40625l1.976563 2.464844-13.726563-105.28125 27.640625-20.734375zm0 0" fill="#8c0f1c"/><path d="m192 128h-44.320312l-40.328126 47.046875 39.542969 32.953125h90.203125l39.542969-32.953125-40.320313-47.046875zm32 64h-64v-16h64zm0-32h-64v-16h64zm0 0" fill="#8c0f1c"/><path d="m217.441406 288 12.796875-64h-76.476562l12.796875 64zm0 0" fill="#8c0f1c"/><path d="m48 368h40v-22.777344l-40 5.714844zm0 0" fill="#8c0f1c"/><path d="m260.238281 392h11.761719c4.40625 0 8-3.585938 8-8v-33.191406l-17.191406 21.488281zm0 0" fill="#8c0f1c"/><path d="m296 368h40v-17.0625l-40-5.714844zm0 0" fill="#8c0f1c"/><path d="m336 120h-40v16h40c4.40625 0 8-3.585938 8-8s-3.59375-8-8-8zm0 0" fill="#8c0f1c"/><path d="m88 136v-16h-40c-4.40625 0-8 3.585938-8 8s3.59375 8 8 8zm0 0" fill="#8c0f1c"/><path d="m268.777344 339.214844c27.078125-33.839844 42.335937-76.109375 43.183594-119.40625l-32.671876-26.136719-26.394531 21.992187 27.640625 20.734376-13.726562 105.28125zm0 0" fill="#8c0f1c"/><path d="m245.351562 230.015625-13.351562 66.777344v87.207031h-16v-80h-48v24h-16v-31.207031l-13.351562-66.777344-18.113282 13.578125 22.488282 172.40625h8.976562v-72h16v96c0 13.230469 10.769531 24 24 24s24-10.769531 24-24v-40h16v16h8.976562l22.488282-172.40625zm0 0" fill="#8c0f1c"/><path d="m104 350.808594v33.191406c0 4.414062 3.59375 8 8 8h11.761719l-2.570313-19.703125zm0 0" fill="#8c0f1c"/></g><g transform="matrix(0.1171875 0 0 0.1171875 104 4)" id="L1_15"><path d="M193.629,141.638c-3.369-0.812-6.857,0.794-8.434,3.881l-6.753,13.226l-5.011-8.187c-1.753-2.865-5.195-4.217-8.431-3.304    c-3.233,0.911-5.466,3.86-5.466,7.219v28.396c0,4.143,3.358,7.5,7.5,7.5c4.142,0,7.5-3.357,7.5-7.5v-2.791    c1.356,1.016,3.038,1.562,4.789,1.494c1.934-0.074,3.732-0.89,5.052-2.229v3.525c0,4.143,3.358,7.5,7.5,7.5    c4.142,0,7.5-3.357,7.5-7.5V148.93C199.375,145.463,197,142.448,193.629,141.638z" fill="#8c1622"/><path d="M304.103,139.208l-21.177-10.288c-2.236-1.085-4.852-0.98-6.998,0.249c-0.613-0.862-1.411-1.611-2.39-2.169l-14.648-8.352    c-0.718-0.409-1.49-0.675-2.278-0.829c-0.01-0.002-0.02-0.004-0.031-0.006c-0.224-0.043-0.448-0.081-0.674-0.103    c-0.188-0.02-0.379-0.028-0.57-0.034c-0.072-0.002-0.143-0.012-0.215-0.011c-0.011,0-0.022-0.002-0.033-0.002    c-1.642,0-3.156,0.534-4.391,1.428l-13.199,7.701c-1.208,0.705-2.138,1.699-2.771,2.839c-0.149-0.109-0.292-0.224-0.449-0.323    c-2.19-1.37-4.932-1.518-7.257-0.389l-21.177,10.288c-2.583,1.255-4.223,3.874-4.223,6.746v35.724c0,4.143,3.358,7.5,7.5,7.5    H230.3c4.142,0,7.5-3.357,7.5-7.5v-41.771c2.211,1.155,4.945,1.19,7.258-0.158l2.531-1.477v44.415c0,4.143,3.358,7.5,7.5,7.5    c4.143,0,7.5-3.357,7.5-7.5v-44.664l3.52,2.007c1.173,0.668,2.448,0.985,3.708,0.985c0.796,0,1.58-0.142,2.332-0.387v41.049    c0,4.143,3.357,7.5,7.5,7.5h21.177c4.143,0,7.5-3.357,7.5-7.5v-35.724C308.325,143.083,306.686,140.464,304.103,139.208z     M222.8,174.179h-6.177v-23.529l6.177-3.001V174.179z M293.325,174.179h-6.177v-26.53l6.177,3.001V174.179z" fill="#8c1622"/><path d="M341.73,148.594c-4.228-1.081-20.894-4.611-21.601-4.761c-2.204-0.469-4.502,0.081-6.257,1.495    c-1.755,1.413-2.782,3.54-2.797,5.793c-0.051,7.796-0.078,13.753-0.089,18.313c-0.001,0.077-0.001,0.155,0,0.233    c0,0.007,0,0.014,0,0.021c-0.031,13.791,0.093,14.599,0.176,15.135c0.568,3.71,3.764,6.364,7.404,6.364    c0.378,0,0.761-0.028,1.146-0.088c3.954-0.606,6.71-4.196,6.329-8.129c-0.032-0.711-0.05-2.885-0.055-5.977l6.987-0.081    c0.695,1.829,1.267,4.077,1.106,6.215c-0.309,4.131,2.79,7.729,6.921,8.038c0.19,0.014,0.379,0.021,0.566,0.021    c3.888,0,7.177-3.001,7.472-6.941c0.337-4.505-0.611-8.681-1.793-11.984c1.562-2.167,2.582-5.002,2.878-8.312    C350.816,156.229,347.443,150.057,341.73,148.594z M326.035,182.906c-0.013-0.118-0.027-0.236-0.046-0.354    C326.001,182.628,326.021,182.747,326.035,182.906z M326.017,161.994c0.003-0.516,0.005-1.036,0.007-1.558    c2.354,0.51,4.716,1.025,6.758,1.48L326.017,161.994z" fill="#8c1622"/><path d="M200.031,326.71c-1.408-1.431-3.353-2.247-5.363-2.247h-16.331c-2.914,0-5.433,1.665-6.675,4.091    c-1.242-2.427-3.761-4.091-6.675-4.091H156.4c-6.841,0-12.406,5.566-12.406,12.408v14.612c0,3.988,1.934,7.757,5.174,10.082    l9.517,6.828c1.324,0.95,2.852,1.407,4.366,1.407c2.334,0,4.635-1.087,6.1-3.129c2.415-3.365,1.644-8.051-1.722-10.466    l-8.436-6.053v-10.69h5.994c2.368,0,4.476-1.1,5.85-2.813v32.392c0,2.479,1.224,4.797,3.271,6.194l16.331,11.149    c1.27,0.866,2.747,1.306,4.229,1.306c1.18,0,2.363-0.278,3.448-0.84c2.45-1.269,4.006-3.78,4.05-6.539    C202.982,329.709,202.815,329.54,200.031,326.71z M187.362,366.122l-1.525-1.041v-25.618h1.66    C187.542,345.64,187.484,355.542,187.362,366.122z" fill="#8c1622"/><path d="M237.937,324.588c-3.561-0.655-7.078,1.324-8.366,4.706l-5.436,14.266l-5.938-14.446c-1.362-3.314-4.875-5.205-8.39-4.507    c-3.514,0.693-6.047,3.775-6.047,7.357v51.867c0,4.143,3.358,7.5,7.5,7.5c4.142,0,7.5-3.357,7.5-7.5v-14.953    c1.42,1.618,3.516,2.586,5.736,2.553c1.706-0.021,3.307-0.62,4.583-1.639v26.735c0,4.143,3.358,7.5,7.5,7.5    c4.142,0,7.5-3.357,7.5-7.5v-64.563C244.08,328.346,241.496,325.242,237.937,324.588z" fill="#8c1622"/><path d="M263.66,324.464h-9.597c-4.142,0-7.5,3.357-7.5,7.5v36.057c0,0.038,0,0.075,0,0.113v30.611c0,4.143,3.358,7.5,7.5,7.5    c4.142,0,7.5-3.357,7.5-7.5v-23.575l3.056-0.174c8.94-0.507,15.944-7.922,15.944-16.88V341.37    C280.563,332.049,272.98,324.464,263.66,324.464z M265.563,358.115L265.563,358.115c0,1.011-0.788,1.847-1.796,1.903l-2.205,0.126    v-20.682h2.098c1.05,0,1.903,0.855,1.903,1.907V358.115z" fill="#8c1622"/><path d="M363.479,323.708c-3.803-1.641-8.217,0.11-9.858,3.913l-0.375,0.869l-0.115-0.333c-1.346-3.919-5.617-6.004-9.529-4.656    c-2.026,0.696-3.555,2.176-4.38,3.981c-1.183-2.587-3.787-4.389-6.818-4.389c-3.84,0-7.005,2.885-7.447,6.605l-0.492-1.293    c-1.284-3.371-4.779-5.354-8.336-4.711c-3.55,0.639-6.143,3.713-6.173,7.319l-0.289,34.867l-7.615-36.343    c-0.729-3.475-3.792-5.962-7.341-5.962c-0.006,0-0.013,0-0.02,0c-3.557,0.009-6.617,2.515-7.329,6l-13.068,64.012    c-0.828,4.059,1.79,8.02,5.849,8.849c0.506,0.104,1.011,0.153,1.508,0.153c3.489,0,6.615-2.449,7.341-6.002l1.532-7.507    l8.106-2.81c0.986,3.872,4.852,6.318,8.797,5.492c4.054-0.85,6.652-4.825,5.803-8.879l-0.013-0.064    c1.112,0.671,2.409,1.068,3.802,1.08c0.021,0,0.043,0,0.063,0c4.113,0,7.465-3.317,7.499-7.438l0.046-5.51l0.77,2.021    c1.289,3.38,4.811,5.36,8.366,4.705c3.559-0.655,6.143-3.758,6.143-7.376V335.82l5.047,14.691l0.002,13.064    c0.001,4.143,3.358,7.5,7.501,7.499c4.143-0.001,7.5-3.358,7.499-7.501l-0.002-12.765l7.442-17.241    C369.034,329.763,367.282,325.351,363.479,323.708z M294.011,371.997l0.795-3.894l0.707,3.373L294.011,371.997z" fill="#8c1622"/><path d="M482.5,232.979c-4.143,0-7.5,3.357-7.5,7.5v6.069l-5.244-9.65c-1.638-3.014-5.108-4.531-8.438-3.688    c-3.324,0.845-5.652,3.838-5.652,7.269v35.577c0,4.143,3.357,7.5,7.5,7.5s7.5-3.358,7.5-7.5v-6.069l5.244,9.65    c1.335,2.457,3.89,3.92,6.589,3.92c0.612,0,1.233-0.076,1.849-0.232c3.324-0.845,5.652-3.838,5.652-7.269v-35.577    C490,236.336,486.643,232.979,482.5,232.979z" fill="#8c1622"/><path d="M74.531,232.979c-9.466,0-17.167,8.653-17.167,19.29v23.787c0.001,4.142,3.359,7.5,7.501,7.5c4.142,0,7.5-3.357,7.5-7.5    v-7.914h4.333v7.914c0,4.143,3.358,7.5,7.5,7.5c4.142,0,7.5-3.357,7.5-7.5V252.27C91.698,241.633,83.997,232.979,74.531,232.979z     M76.699,253.141h-4.333v-0.873c-0.001-2.787,1.537-4.29,2.166-4.29c0.629,0,2.167,1.503,2.167,4.29V253.141z" fill="#8c1622"/><path d="M126.993,252.133v-2.013c0-9.452-7.69-17.142-17.142-17.142h-9.692c-4.142,0-7.5,3.357-7.5,7.5v17.789v3.506v14.282    c0,4.143,3.358,7.5,7.5,7.5c3.953,0,7.184-3.059,7.472-6.938l7.406,5.471c1.341,0.991,2.902,1.468,4.451,1.468    c2.298,0,4.568-1.053,6.039-3.044c2.461-3.331,1.755-8.027-1.576-10.488l-4.775-3.527    C123.874,263.437,126.993,258.146,126.993,252.133z M111.993,252.133c0,1.181-0.961,2.141-2.142,2.141h-2.192v-6.296h2.192    c1.181,0,2.142,0.961,2.142,2.142V252.133z" fill="#8c1622"/><path d="M150.313,268.555h-7.151v-28.077c0-4.142-3.358-7.5-7.5-7.5c-4.142,0-7.5,3.357-7.5,7.5v35.577c0,4.143,3.358,7.5,7.5,7.5    h14.651c4.142,0,7.5-3.357,7.5-7.5S154.455,268.555,150.313,268.555z" fill="#8c1622"/><path d="M181.634,268.555h-8.344v-3.616h8.344c4.142,0,7.5-3.357,7.5-7.5s-3.358-7.5-7.5-7.5h-8.344v-1.961h8.343    c4.142,0,7.5-3.357,7.5-7.5s-3.358-7.5-7.5-7.5H165.79c-4.142,0-7.5,3.357-7.5,7.5v35.577c0,4.143,3.358,7.5,7.5,7.5h15.844    c4.142,0,7.5-3.357,7.5-7.5S185.776,268.555,181.634,268.555z" fill="#8c1622"/><path d="M248.426,232.979h-9.359c-5.052,0-9.163,4.11-9.163,9.163v32.252c0,5.052,4.11,9.162,9.163,9.162h9.359v0.001    c8.719,0,15.812-7.093,15.812-15.812v-18.954C264.238,240.072,257.145,232.979,248.426,232.979z M249.238,267.745    c0,0.447-0.364,0.812-0.812,0.812h-3.522v-20.578h3.522c0.447,0,0.812,0.364,0.812,0.812V267.745z" fill="#8c1622"/><path d="M368.396,232.979h-9.359c-5.053,0-9.163,4.11-9.163,9.163v32.252c0,5.052,4.11,9.162,9.163,9.162h9.359v0.001    c8.719,0,15.812-7.093,15.812-15.812v-18.954C384.208,240.072,377.115,232.979,368.396,232.979z M369.208,267.745    c0,0.447-0.364,0.812-0.812,0.812h-3.522v-20.578h3.522c0.447,0,0.812,0.364,0.812,0.812V267.745z" fill="#8c1622"/><path d="M283.189,232.979c-9.466,0-17.167,7.662-17.167,17.079v25.998c0,4.143,3.357,7.5,7.5,7.5s7.5-3.357,7.5-7.5v-8.797h4.334    v8.797c0,4.143,3.357,7.5,7.5,7.5s7.5-3.357,7.5-7.5v-25.998C300.356,240.641,292.655,232.979,283.189,232.979z M285.356,252.26    h-4.334v-2.201c0-1.146,0.972-2.079,2.167-2.079s2.167,0.933,2.167,2.079V252.26z" fill="#8c1622"/><path d="M440.084,232.981h-5.446c-7.964,0-14.443,6.479-14.443,14.444v21.688c0,7.965,6.479,14.444,14.443,14.444h5.446    c7.964,0,14.443-6.479,14.443-14.444v-21.688C454.527,239.46,448.048,232.981,440.084,232.981z M439.527,268.555h-4.333v-20.577    h4.333V268.555z" fill="#8c1622"/><path d="M48.902,232.979c-4.142,0-7.5,3.357-7.5,7.5v10.289h-4.333v-10.289c0-4.143-3.358-7.5-7.5-7.5c-4.142,0-7.5,3.357-7.5,7.5    v35.577c0,4.143,3.358,7.5,7.5,7.5c4.142,0,7.5-3.357,7.5-7.5v-10.288h4.333v10.288c0,4.143,3.358,7.5,7.5,7.5    c4.142,0,7.5-3.357,7.5-7.5v-35.577C56.402,236.336,53.044,232.979,48.902,232.979z" fill="#8c1622"/><path d="M220.263,233.89c-3.641-1.978-8.194-0.631-10.171,3.009l-3.077,5.662l-3.077-5.662c-1.977-3.639-6.529-4.986-10.171-3.009    c-3.64,1.978-4.986,6.531-3.009,10.171l8.757,16.114v15.882c0,4.142,3.358,7.5,7.5,7.5c4.142,0,7.5-3.357,7.5-7.5v-15.882    l8.757-16.114C225.25,240.421,223.903,235.868,220.263,233.89z" fill="#8c1622"/><path d="M327.703,233.243c-3.994-1.083-8.117,1.273-9.204,5.271l-2.43,8.939l-2.429-8.939c-1.087-3.997-5.21-6.354-9.204-5.271    c-3.997,1.086-6.356,5.206-5.271,9.204l9.666,35.577c0.889,3.265,3.855,5.533,7.239,5.533c3.385,0,6.351-2.268,7.237-5.533    l9.667-35.577C334.06,238.45,331.701,234.329,327.703,233.243z" fill="#8c1622"/><path d="M341.362,232.979c-4.143,0-7.5,3.357-7.5,7.5v35.577c0,4.143,3.357,7.5,7.5,7.5s7.5-3.358,7.5-7.5v-35.577    C348.862,236.336,345.505,232.979,341.362,232.979z" fill="#8c1622"/><path d="M419.583,245.445v-4.965c0-4.143-3.357-7.5-7.5-7.5h-11.188c-8.627,0-15.646,6.984-15.646,15.57v1.648    c0,5.854,3.263,10.963,8.073,13.622c-0.189-0.015-0.38-0.021-0.573-0.021c-4.143-0.001-7.5,3.356-7.5,7.499v4.758    c0,4.143,3.357,7.5,7.5,7.5h11.189c8.626,0,15.645-6.984,15.645-15.57v-1.647c0-5.692-3.085-10.681-7.679-13.396    C416.137,252.998,419.583,249.648,419.583,245.445z M404.584,267.986c0,0.314-0.289,0.57-0.645,0.57h-4.207    c-0.499-1.271-1.336-2.373-2.399-3.195c1.144,0.267,2.336,0.408,3.562,0.408h3.044c0.355,0,0.645,0.256,0.645,0.57V267.986z     M403.939,250.768h-3.044c-0.355,0-0.646-0.256-0.646-0.57v-1.649c0-0.314,0.29-0.57,0.646-0.57h4.128    c0.437,1.217,1.179,2.287,2.135,3.12C406.118,250.883,405.043,250.768,403.939,250.768z" fill="#8c1622"/><path d="M504.5,201.094h-94.364c2.804-4.245,5.324-6.035,6.404-6.658l6.878-0.495c3.923-0.282,6.962-3.547,6.962-7.48v-67.55    c0-4.055-3.223-7.375-7.275-7.497l-9.705-0.29c-9.57-0.28-19.098-0.938-28.316-1.958c-4.116-0.439-7.822,2.515-8.278,6.631    c-0.454,4.117,2.515,7.824,6.631,8.279c9.618,1.063,19.552,1.749,29.52,2.042l2.425,0.072v53.291l-1.238,0.089    c-0.641,0.046-1.272,0.174-1.881,0.381c-2.841,0.968-12.013,5.232-19.14,21.144h-9.753c5.854-15.098,13.626-22.712,19.562-26.521    c2.15-1.379,3.45-3.758,3.45-6.313v-26.281c0-3.956-3.072-7.231-7.02-7.484c-51.41-3.3-87.354-16.201-108.454-26.442    c-14.307-6.949-24.395-13.849-30.339-18.412c-2.695-2.069-6.445-2.07-9.138,0.002c-19.091,14.674-62.507,40.015-138.784,44.852    c-3.95,0.251-7.025,3.527-7.025,7.485v26.31c0,2.546,1.292,4.918,3.43,6.3c5.916,3.822,13.665,11.443,19.526,26.504h-9.754    c-6.747-14.989-15.691-20.557-19.812-21.387c-0.097-0.02-0.194-0.037-0.292-0.053l-2.098-0.337V126.19l2.422-0.072    c109.568-3.248,154.697-50.254,155.127-50.716l1.825-1.944l1.83,1.948l0.006-0.006c1.546,1.572,13.318,13.049,37.006,24.548    c16.507,8.012,35.247,14.331,55.699,18.781c4.046,0.883,8.042-1.687,8.923-5.733c0.881-4.048-1.686-8.043-5.733-8.923    c-19.291-4.198-36.901-10.126-52.339-17.619c-21.726-10.548-32.146-20.837-32.672-21.364l-7.258-7.725    c-1.42-1.51-3.397-2.365-5.468-2.365h-0.002c-2.071,0.001-4.05,0.857-5.467,2.368l-7.25,7.727    c-0.415,0.43-42.682,43.006-144.676,46.028l-9.7,0.29c-4.053,0.122-7.276,3.442-7.276,7.497v66.8c0,3.684,2.675,6.821,6.312,7.405    l7.436,1.193c0.935,0.54,3.527,2.334,6.446,6.785H64.865c-4.142,0-7.5,3.357-7.5,7.5s3.358,7.5,7.5,7.5H497v85.026H15v-85.026h17    c4.142,0,7.5-3.357,7.5-7.5s-3.358-7.5-7.5-7.5H7.5c-4.142,0-7.5,3.357-7.5,7.5V308.62c0,4.143,3.358,7.5,7.5,7.5h85.206    c-2.252,1.347-3.976,1.832-4.625,1.978l-15.99,0.873c-2.652,0.146-5.031,1.683-6.251,4.042c-1.221,2.359-1.103,5.188,0.31,7.438    l9.015,14.347c0.625,1.003,15.66,24.881,45.396,50.805c27.254,23.774,72.502,53.688,133.292,61.191l1.22,0.15    c0.305,0.038,0.611,0.057,0.917,0.057c0.304,0,0.608-0.019,0.911-0.056l1.237-0.151c21.865-2.697,43.422-8.548,64.074-17.389    c3.808-1.63,5.573-6.038,3.942-9.847c-1.63-3.807-6.036-5.573-9.847-3.942c-19.354,8.285-39.543,13.767-59.999,16.29l-0.315,0.038    l-0.305-0.037c-57.021-7.038-99.594-35.212-125.27-57.609c-28.065-24.469-42.382-47.206-42.539-47.457l-2.253-3.586l3.762-0.205    c0.255-0.015,0.509-0.041,0.762-0.081c2.377-0.376,13.947-2.89,23.694-16.848h10.632c-1.823,3.203-3.842,6.162-6.044,8.853    c-3.273,4.004-6.962,7.421-10.964,10.155c-1.731,1.183-2.888,3.035-3.19,5.11c-0.303,2.074,0.277,4.181,1.599,5.809    c6.205,7.644,16.524,19.307,30.453,31.466c24.382,21.262,64.763,48.101,118.678,55.223c0.326,0.043,0.654,0.064,0.982,0.064    c0.328,0,0.656-0.021,0.982-0.064c53.934-7.123,94.317-33.962,118.698-55.223c11.116-9.694,21.354-20.27,30.43-31.432    c1.322-1.627,1.903-3.732,1.604-5.808c-0.301-2.074-1.456-3.929-3.187-5.112c-3.963-2.714-7.646-6.14-10.957-10.196    c-2.198-2.682-4.215-5.638-6.04-8.845h10.635c9.747,13.958,21.316,16.472,23.694,16.848c0.251,0.039,0.504,0.066,0.758,0.08    l3.859,0.213l-2.267,3.454c-0.033,0.051-0.065,0.102-0.098,0.153c-0.141,0.227-14.407,22.919-42.521,47.429    c-11.788,10.277-24.427,19.436-37.564,27.221c-3.563,2.111-4.74,6.712-2.629,10.275c1.4,2.364,3.896,3.678,6.459,3.678    c1.3,0,2.617-0.338,3.816-1.049c13.92-8.248,27.302-17.944,39.775-28.818c29.199-25.457,44.178-48.866,45.346-50.726l9.366-14.272    c1.472-2.243,1.634-5.101,0.425-7.495c-1.209-2.394-3.604-3.961-6.282-4.108l-16.372-0.904c-0.649-0.145-2.374-0.63-4.627-1.978    H504.5c4.143,0,7.5-3.357,7.5-7.5V208.594C512,204.451,508.643,201.094,504.5,201.094z M144.5,201.094    c-6.419-19.477-15.887-30.502-23.88-36.675v-15.462c70.574-5.738,113.712-28.598,135.382-44.041    c8.39,5.975,17.901,11.555,28.353,16.631c21.328,10.353,56.896,23.268,107.025,27.403v15.425    c-8.025,6.163-17.52,17.193-23.928,36.719H144.5z M389.557,342.441c-5.846,6.712-13.841,15.128-23.746,23.766    c-22.675,19.774-60.083,44.695-109.82,51.524c-49.718-6.828-87.124-31.75-109.798-51.522c-9.95-8.686-17.937-17.093-23.761-23.783    c2.704-2.406,5.25-5.066,7.613-7.957c4.381-5.354,8.136-11.517,11.223-18.35h229.465c3.093,6.849,6.848,13.012,11.217,18.342    C384.322,337.368,386.866,340.036,389.557,342.441z" fill="#8c1622"/></g></defs><g fi:class="KUsePattern" opacity="0.4"><pattern id="pattern_L1_7" width="350" height="350" patternUnits="userSpaceOnUse"><use xlink:href="#L1_7" x="-350" y="-350"/><use xlink:href="#L1_7" x="0" y="-350"/><use xlink:href="#L1_7" x="350" y="-350"/><use xlink:href="#L1_7" x="-350" y="0"/><use xlink:href="#L1_7" x="0" y="0"/><use xlink:href="#L1_7" x="350" y="0"/><use xlink:href="#L1_7" x="-350" y="350"/><use xlink:href="#L1_7" x="0" y="350"/><use xlink:href="#L1_7" x="350" y="350"/></pattern><rect x="0" y="0" width="100%" height="100%" fill="url(#pattern_L1_7)"/></g><g fi:class="KUsePattern" opacity="0.4"><pattern id="pattern_L1_1" width="350" height="350" patternUnits="userSpaceOnUse"><use xlink:href="#L1_1" x="-350" y="-350"/><use xlink:href="#L1_1" x="0" y="-350"/><use xlink:href="#L1_1" x="350" y="-350"/><use xlink:href="#L1_1" x="-350" y="0"/><use xlink:href="#L1_1" x="0" y="0"/><use xlink:href="#L1_1" x="350" y="0"/><use xlink:href="#L1_1" x="-350" y="350"/><use xlink:href="#L1_1" x="0" y="350"/><use xlink:href="#L1_1" x="350" y="350"/></pattern><rect x="0" y="0" width="100%" height="100%" fill="url(#pattern_L1_1)"/></g><g fi:class="KUsePattern" opacity="0.4"><pattern id="pattern_L1_15" width="350" height="350" patternUnits="userSpaceOnUse"><use xlink:href="#L1_15" x="-350" y="-350"/><use xlink:href="#L1_15" x="0" y="-350"/><use xlink:href="#L1_15" x="350" y="-350"/><use xlink:href="#L1_15" x="-350" y="0"/><use xlink:href="#L1_15" x="0" y="0"/><use xlink:href="#L1_15" x="350" y="0"/><use xlink:href="#L1_15" x="-350" y="350"/><use xlink:href="#L1_15" x="0" y="350"/><use xlink:href="#L1_15" x="350" y="350"/></pattern><rect x="0" y="0" width="100%" height="100%" fill="url(#pattern_L1_15)"/></g></svg>